<svg xmlns="http://www.w3.org/2000/svg" width="96" height="256" viewBox="0 0 96 256">
  <defs>
    <linearGradient id="steel" x1="0" y1="0" x2="1" y2="0"><stop stop-color="#4c6265"/><stop offset=".48" stop-color="#d4dcce"/><stop offset=".52" stop-color="#8c9b95"/><stop offset="1" stop-color="#344044"/></linearGradient>
  </defs>
  <g transform="rotate(-7 48 128)" opacity=".85">
    <path d="M27 44v187" stroke="#1b1712" stroke-width="9"/>
    <path d="M27 44v187" stroke="#8e683f" stroke-width="5"/>
    <path d="m27 15-10 30 10-4 10 4z" fill="url(#steel)" stroke="#202c2c" stroke-width="2"/>
    <path d="m24 186-12 15v31l12-10m6-36 12 15v31l-12-10" fill="#747970" stroke="#292f2b" stroke-width="2"/>
  </g>
  <g transform="rotate(7 48 128)" opacity=".85">
    <path d="M69 47v187" stroke="#1b1712" stroke-width="9"/>
    <path d="M69 47v187" stroke="#8e683f" stroke-width="5"/>
    <path d="m69 18-10 30 10-4 10 4z" fill="url(#steel)" stroke="#202c2c" stroke-width="2"/>
    <path d="m66 189-12 15v31l12-10m6-36 12 15v31l-12-10" fill="#747970" stroke="#292f2b" stroke-width="2"/>
  </g>
  <path d="M48 38v204" stroke="#201912" stroke-width="10"/>
  <path d="M48 38v204" stroke="#b38a54" stroke-width="6"/>
  <path d="M47 44v142" stroke="#e0c18a" stroke-width="1.5" opacity=".7"/>
  <path d="m48 7-13 35 13-5 13 5z" fill="url(#steel)" stroke="#202c2c" stroke-width="2"/>
  <path d="m44 194-15 17v30l15-12m8-35 15 17v30l-15-12" fill="#d0c4a1" stroke="#333a31" stroke-width="2"/>
  <path d="m32 216 10-9m-10 18 10-9m12-9 10 9m-10 0 10 9" fill="none" stroke="#8d907a" stroke-width="2"/>
  <path d="M42 187h12m-12 5h12M42 236h12" stroke="#554534" stroke-width="3"/>
</svg>
