<svg xmlns="http://www.w3.org/2000/svg" width="96" height="96" viewBox="0 0 96 96"><defs><linearGradient id="liq" x2="0.6" y2="1"><stop stop-color="#edc768"/><stop offset="1" stop-color="#9a7126"/></linearGradient></defs><ellipse cx="49" cy="86" rx="27" ry="5" fill="#11191a" opacity=".65"/><path d="M39 19H57V33Q71 45 73 72Q77 88 48 89Q19 88 23 72Q25 45 39 33Z" fill="#283b42" stroke="#141e23" stroke-width="4"/><path d="M30 48 Q48 41 66 48 L70 74 Q70 84 48 85 Q26 84 26 74Z" fill="url(#liq)" stroke="#bec8b6" stroke-opacity=".45" stroke-width="1.3"/><path d="M39 21V35Q27 46 27 64" fill="none" stroke="#ecf6dd" stroke-opacity=".6" stroke-width="3" stroke-linecap="round"/><rect x="36" y="14" width="24" height="11" rx="3" fill="#98734c" stroke="#332c21" stroke-width="3"/><path d="M34 30H62" stroke="#bdb792" stroke-width="3"/><path d="M39 57H57V73H39Z" fill="#d9c393" stroke="#655e46" stroke-width="2"/><path d="M43 64H53M48 60V69" stroke="#9a7126" stroke-width="2"/></svg>