<svg xmlns="http://www.w3.org/2000/svg" width="96" height="96" viewBox="0 0 96 96"><defs><linearGradient id="t" x2=".7" y2="1"><stop stop-color="#c7d8d1"/><stop offset="1" stop-color="#607f93"/></linearGradient></defs><ellipse cx="49" cy="86" rx="27" ry="5" fill="#121c20" opacity=".6"/><path d="M38 17H58V35L69 47Q79 80 66 85Q48 92 29 84Q18 75 28 46L38 35Z" fill="#23323b" stroke="#14222c" stroke-width="4"/><path d="M29 51Q47 43 68 51L72 72Q74 86 48 86Q22 86 25 73Z" fill="url(#t)" stroke="#d5d8c2" stroke-opacity=".6" stroke-width="1.2"/><path d="M38 24V37L29 51L27 65" fill="none" stroke="#e4eddc" stroke-width="3" stroke-linecap="round" opacity=".8"/><rect x="35" y="12" width="26" height="12" rx="3" fill="#a88659" stroke="#3b3428" stroke-width="3"/><path d="M34 30H62" stroke="#d4b777" stroke-width="4"/><circle cx="48" cy="64" r="15" fill="#d0bc8c" stroke="#735b3b" stroke-width="2.5"/><path d="M52 53Q40 55 42 65Q44 75 55 69Q45 68 47 60Z" fill="none" stroke="#607f93" stroke-width="3" stroke-linejoin="round" stroke-linecap="round"/><path d="M59 30Q76 37 74 45" fill="none" stroke="#a88b61" stroke-width="2.5"/></svg>